<svg xmlns="http://www.w3.org/2000/svg" xmlns:xlink="http://www.w3.org/1999/xlink" width="350px" height="250px" viewBox="0 0 350 250"><title>Group 62</title><g id="Page-1" stroke="none" stroke-width="1" fill="none" fill-rule="evenodd"><g id="Group-62"><rect id="Rectangle-Copy-57" fill="#FFFFFF" x="0" y="0" width="350" height="250"></rect><g id="Group-42" transform="translate(92.000000, 17.000000)"><path d="M39.2655047,8.01781931 C38.873427,8.01929628 38.4860169,8.10643784 38.1359475,8.27333609 C37.7843223,8.44023433 37.479373,8.68098135 37.2428817,8.97785344 C36.7325583,9.83449929 36.4649498,10.8004413 36.4649498,11.7841071 C36.0293079,15.9063459 35.9001712,20.0522164 36.0759838,24.190702 C36.1615563,25.3678516 36.4789525,26.5198926 37.0095021,27.5877459 C37.2911135,28.1120722 37.753205,28.5300563 38.3179836,28.7722803 C38.884318,29.0145043 39.5206664,29.0647215 40.1212298,28.9170239 C40.6206621,28.7353559 41.0687509,28.4488227 41.432823,28.0781018 C41.7968952,27.705904 42.0660596,27.2613343 42.221646,26.7754093 C42.7490839,25.2762791 43.0120249,23.7033001 42.9995779,22.1229362 C42.9995779,21.044744 42.8751088,17.6920094 42.4550256,12.2271997 C42.4939222,10.999833 42.142297,9.79019002 41.4437141,8.75630711 C41.1652145,8.48011267 40.8244803,8.27038214 40.4464054,8.14188526 C40.0683304,8.01486536 39.6638058,7.97203307 39.2655047,8.01781931 Z M75.6113835,22.7462698 C76.6030008,21.4831084 77.3482254,20.0337316 77.8032205,18.4788326 C78.2113557,16.9270373 77.984614,15.9183703 77.1229952,15.375242 C76.7768361,15.1440245 76.3747474,15.0152255 75.9620774,15.0012593 C75.5494074,14.9872932 75.1397606,15.0897116 74.779997,15.2976522 C74.0151214,15.6514616 73.3605935,16.2147633 72.8904823,16.9270373 C70.3313235,20.0647675 68.1016961,23.47251 66.2393904,27.0912967 C65.7647443,27.8408138 65.3838182,28.6492992 65.1056816,29.4965794 C64.9892875,29.9310821 64.9681249,30.38731 65.0467287,30.8295716 C65.1253325,31.2733851 65.3006795,31.6923698 65.5591651,32.0570417 C65.9340448,32.5334429 66.4767135,32.8391466 67.0707769,32.9105292 C67.6497242,33.0703641 68.2649502,33.0144995 68.8091305,32.7553496 C69.87784,32.1858407 70.7485284,31.2920066 71.3032899,30.1948873 L72.8149017,26.8585274 C73.117224,26.2843631 74.0544233,24.9498191 75.6113835,22.8238595 L75.6113835,22.7462698 Z M5.69938444,24.2510949 C5.35738144,24.0436869 4.95593222,23.9619348 4.56122123,24.0164362 C4.16651024,24.0724515 3.80204645,24.2616923 3.52817452,24.5538802 C2.77948145,25.3108436 2.82440303,26.4462888 3.67791314,27.9602156 C6.10847033,31.8101316 9.08512426,35.278538 12.5124914,38.2549182 C14.0098776,39.6628701 15.2527081,40.2230231 16.2559568,39.9202377 C16.6023022,39.8218325 16.9195983,39.6386473 17.180443,39.3888494 C17.4412877,39.1375375 17.6380442,38.8271825 17.7533429,38.4820072 C18.0541678,37.7598641 18.0806716,36.9514272 17.8282123,36.2111169 C17.2436327,34.8546385 16.3449015,33.6601502 15.2077865,32.7290852 L7.57111713,25.4622363 C7.06604878,24.8793745 6.42172352,24.4357939 5.69938444,24.1753985 L5.69938444,24.2510949 Z" id="Shape" fill="#FC6078" fill-rule="nonzero" transform="translate(40.500000, 24.000000) rotate(-12.000000) translate(-40.500000, -24.000000) "></path><g id="like-06" transform="translate(0.000000, 47.000000)"><path d="M112.680727,65.1015867 C109.482504,63.1858327 105.964459,61.9086633 102.446413,61.9086633 C105.964459,53.6070624 106.923925,44.6668769 105.004992,35.7266913 C104.365347,30.6180138 101.806769,26.147921 97.9689012,22.9549976 C96.0499675,21.3585359 93.4913891,20.4006589 90.9328108,20.0813665 L90.9328108,20.0813665 C88.3742324,19.7620742 86.1354764,20.4006589 83.8967203,21.6778283 C81.6579643,23.27429 80.0588528,25.8286287 79.7390305,28.7022598 C79.099386,31.5758908 78.7795637,34.4495219 78.4597414,37.323153 C78.4597414,42.1125381 77.5002745,46.9019233 75.5813407,51.372016 C74.6218739,53.6070624 73.3425847,55.8421088 71.7434732,57.4385705 C70.1443618,59.0350322 67.9056057,60.3122016 65.6668497,61.2700786 C65.0272051,61.589371 63.7479159,61.9086633 61.8289821,62.2279557 C60.549693,62.2279557 59.2704038,62.547248 58.3109369,63.1858327 C55.112714,64.463002 52.5541357,66.6980484 50.6352019,69.5716795 C48.0766236,73.4031876 46.1576898,77.5539881 45.1982229,82.3433732 C44.238756,86.813466 43.2792892,91.6028511 42.6396446,96.0729439 C42,100.223744 42,104.055252 42,108.206053 C42.3198223,112.995438 43.9189338,117.465531 46.7973344,121.297039 C49.9955573,125.767132 54.1532471,129.59864 59.2704038,132.152979 C70.1443618,138.219533 82.6174312,139.496702 94.450856,136.303779 C98.2887235,135.345902 101.806769,133.430148 104.685169,130.875809 C105.964459,129.59864 107.243748,127.682886 107.56357,125.767132 C108.203215,123.851378 107.883392,121.935624 107.243748,120.01987 C109.802326,119.061992 112.041082,117.146238 113.640194,115.230484 C115.239305,112.995438 116.518594,110.760392 116.838416,107.886761 C117.478061,105.332422 117.158239,102.458791 116.518594,100.223744 C115.87895,97.6694056 114.279838,95.1150669 112.360904,93.1993128 C115.559127,91.2835588 117.797883,88.4099277 119.077173,84.8977119 C120.356462,81.3854962 120.356462,77.5539881 118.75735,74.0417723 C118.437528,69.8909719 115.87895,67.0173408 112.680727,65.1015867 Z" id="Path"></path><path d="M163.597264,35.762764 C160.706029,28.6996118 155.566055,22.5996167 149.141089,18.7469882 L149.141089,18.4259358 C145.607357,16.8206739 142.073626,15.215412 138.218646,13.9312025 C132.436176,11.6838359 128.259948,10.3996264 126.011209,9.75752166 C123.762471,9.11541691 120.228739,8.15225978 115.410014,7.18910265 C110.59129,5.90489315 104.80882,4.62068365 97.7413565,3.33647415 C91.3163899,2.05226465 86.497665,1.4101599 82.9639334,0.768055153 C77.8239602,0.125950402 72.683987,-0.195101973 67.5440137,0.125950402 C59.5128055,0.447002777 51.4815974,1.73121228 44.0928858,4.62068365 C36.382926,7.51015503 29.6367111,12.0048883 23.8542412,17.783831 C18.3930196,23.8838262 14.2167914,30.9469784 11.6468048,38.6522354 C9.07681816,46.6785448 6.82807987,54.7048542 5.22183823,62.7311635 L1.68810663,78.1416776 C0.403113322,86.8100917 -0.239383332,95.7995582 0.0818649949,104.467972 C0.724361649,110.246915 1.3668583,115.704805 2.65185161,121.483748 L2.65185161,122.125853 C3.61559659,127.262691 7.14932819,132.078477 12.9317981,137.215315 C16.4655297,140.425838 20.6417579,142.994257 24.8179862,145.562676 C30.6004561,148.7732 36.7041743,151.662671 43.1291408,153.588986 C58.8703089,158.725824 77.8239602,161.294243 99.9900948,160.97319 C105.772565,160.97319 111.555035,160.652138 117.337504,159.367928 C126.974954,156.478457 135.327411,150.05741 142.394874,139.462681 C146.892351,132.720581 151.068579,123.08901 155.566055,109.925863 C162.31227,89.6995631 166.16725,73.0048396 166.809747,59.8416922 C167.452243,51.8153828 166.488499,43.468021 163.597264,35.762764 Z M161.991022,56.6311684 C161.027277,68.8311587 158.778539,81.0311489 155.244807,92.9100868 C152.67482,101.899553 150.426082,109.60481 148.177344,115.383753 C145.607357,122.767958 142.073626,129.83111 137.897397,136.57321 C132.114927,145.562676 125.689961,151.341619 118.943746,153.910038 C113.803773,155.5153 108.6638,156.157405 103.202578,155.836352 C90.352645,156.157405 77.1814635,155.5153 64.3315304,153.588986 C51.4815974,151.662671 39.2741609,147.810043 27.7092211,142.0311 C21.9267512,139.141629 16.786778,135.289 12.2893014,130.473215 C7.14932819,124.694272 4.25809325,119.878486 3.61559659,115.704805 C2.97309994,109.283758 2.97309994,102.86271 3.61559659,96.1206106 L4.25809325,84.5627251 L9.71931481,57.9153779 C11.3255564,51.173278 13.2530464,44.7522305 15.5017847,38.0101307 C17.750523,31.5890832 21.2842546,25.8101404 25.7817312,20.6733024 C32.8491944,13.2890978 41.8441475,8.15225978 51.8028457,6.22594553 C61.7615438,3.9785789 71.720242,3.9785789 81.6789401,5.2627884 C85.2126717,5.58384078 90.6738933,6.86805028 98.0626048,8.15225978 C105.130068,9.75752166 110.912538,11.0417312 115.410014,12.0048883 C118.622498,12.646993 121.834981,13.2890978 125.047464,14.2522549 C127.296203,14.8943597 129.544941,15.8575168 132.436176,16.8206739 L132.436176,16.8206739 C135.327411,17.783831 137.897397,18.7469882 140.467384,19.7101453 C142.716122,20.6733024 144.322364,21.3154072 145.607357,21.9575119 C152.032324,25.1680357 157.172297,30.9469784 159.742284,38.0101307 C161.669774,44.1101258 162.31227,50.5311733 161.991022,56.6311684 Z" id="Shape" fill="#374151" fill-rule="nonzero"></path><path d="M111.763134,65.9548179 C108.874344,64.0300737 101.491882,63.709283 97.9611398,63.3884923 C101.491882,55.6895156 105.664578,42.8578878 103.738719,34.5173297 C103.096765,29.7054693 102.454812,25.5351902 98.9240696,22.3272832 C96.99821,21.0441205 93.7884439,20.0817484 91.2206311,20.0817484 L94.1094205,20.0817484 C91.8625843,19.7609577 89.6157481,20.4025391 87.6898884,21.6857019 C85.7640288,23.2896553 84.1591458,25.5351902 83.5171926,28.1015158 C82.8752394,30.6678413 82.5542628,33.5549576 82.5542628,36.1212832 C82.5542628,40.6123529 78.3815669,48.3113296 76.7766839,52.4816087 C76.1347307,54.7271436 74.8508242,56.6518877 73.2459412,58.2558412 C71.6410582,59.8597947 69.7151986,61.1429575 67.4683623,61.7845389 C66.8264091,62.1053296 65.5425027,62.4261203 63.9376197,62.746911 C62.6537133,62.746911 61.6907834,63.0677017 60.406877,63.3884923 C57.5180876,64.6716551 54.9502747,66.5963993 53.0244151,69.4835156 C50.4566023,73.0122132 48.8517193,77.1824923 47.8887894,81.3527713 C46.9258596,85.5230504 46.2839064,90.0141201 45.6419532,94.5051899 C45,98.3546782 45,102.204167 45,106.053655 C45.3209766,110.544725 46.9258596,114.715004 49.4936725,118.243701 C52.3824619,122.41398 56.5551578,125.942678 61.3698068,128.509004 C71.6410582,133.962445 83.5171926,135.566399 94.7513737,132.358492 C98.2821164,131.716911 101.812859,129.792166 104.380672,127.225841 C105.664578,125.942678 106.627508,124.338725 107.269461,122.41398 C107.911415,120.489236 107.590438,118.564492 106.948485,116.960539 C109.195321,115.998167 111.442157,114.394213 113.04704,112.469469 C114.651923,110.544725 115.614853,107.978399 116.256806,105.732864 C116.898759,103.166539 116.577783,100.600213 115.93583,98.3546782 C115.293876,95.7883527 114.00997,93.5428178 112.08411,91.9388643 C114.9729,90.0141201 117.219736,87.4477946 118.182666,83.9190969 C119.466572,80.7111899 119.145596,76.8617016 117.861689,73.6537946 C116.898759,70.4458877 114.651923,67.8795621 111.763134,65.9548179 Z M111.442157,79.7488179 C111.442157,80.7111899 111.121181,81.673562 110.479227,82.6359341 C109.837274,83.5983062 109.195321,84.2398876 108.553368,84.881469 C107.911415,85.5230504 106.948485,85.8438411 105.985555,86.1646318 C104.380672,86.8062132 103.417742,87.1270039 103.417742,87.1270039 C101.170906,88.4101666 100.207976,89.6933294 100.528953,91.2972829 C100.528953,91.9388643 100.849929,92.5804457 101.170906,92.9012364 C101.491882,93.5428178 102.133836,93.8636085 102.454812,94.1843992 C103.096765,94.8259806 104.380672,95.467562 105.985555,96.429934 C106.948485,97.0715154 107.590438,98.0338875 108.232391,99.3170503 C108.874344,100.600213 108.874344,101.562585 108.874344,102.845748 C108.874344,104.128911 108.553368,105.412074 107.911415,106.374446 C107.269461,107.336818 106.306531,108.29919 105.343602,108.940771 C103.417742,109.903143 102.133836,110.223934 101.170906,110.544725 C100.528953,110.865515 99.8869994,111.186306 99.5660228,111.507097 C98.9240696,111.827887 98.603093,112.469469 98.2821164,113.11105 C97.9611398,114.394213 98.2821164,115.677376 98.603093,116.960539 C99.2450462,118.243701 99.2450462,119.526864 98.9240696,120.810027 C98.603093,121.451608 97.9611398,122.09319 97.3191866,122.734771 C96.6772334,123.376353 96.0352801,123.697143 95.0723503,123.697143 C91.5416077,124.659515 88.010865,125.301097 84.1591458,124.980306 C80.9493797,125.301097 77.7396137,124.980306 74.208871,124.338725 C70.3571518,123.697143 66.5054325,122.09319 63.2956665,120.168446 C60.0859004,117.922911 57.197111,115.356585 55.2712514,112.148678 C54.3083215,110.544725 53.3453917,108.940771 53.0244151,107.016027 C52.3824619,104.770492 52.3824619,102.204167 52.3824619,99.637841 L52.7034385,84.2398876 C52.7034385,82.6359341 53.0244151,81.0319806 53.3453917,79.4280272 C53.9873449,77.503283 54.6292981,75.5785388 55.9132046,73.9745853 C57.197111,71.7290504 59.1229706,69.8043063 61.6907834,68.5211435 C63.6166431,67.8795621 65.8634793,67.2379807 68.1103155,67.2379807 C72.2830114,66.2756086 76.1347307,64.0300737 79.0235201,60.5013761 C81.9123095,56.9726784 83.8381692,53.1231901 84.801099,48.6321203 C85.1220756,47.3489575 85.4430522,44.1410506 86.0850054,39.0083994 C86.405982,35.8004925 87.0479352,32.5925855 88.3318416,29.7054693 L88.6528182,30.02626 C89.6157481,29.7054693 90.5786779,30.02626 91.5416077,30.3470507 C92.5045375,30.6678413 93.1464907,31.6302134 93.7884439,32.2717948 C95.0723503,33.8757483 95.7143035,35.8004925 96.0352801,38.0460274 C97.9611398,46.0657948 97.6401632,52.8023994 94.7513737,58.2558412 C93.7884439,59.539004 93.4674673,60.5013761 93.1464907,61.4637482 C92.5045375,62.4261203 92.1835609,63.709283 91.8625843,64.9924458 C91.5416077,66.2756086 91.5416077,67.2379807 92.1835609,68.5211435 C92.5045375,69.4835156 93.4674673,70.4458877 94.4303971,71.0874691 C96.0352801,71.4082598 97.6401632,71.0874691 99.2450462,70.7666784 C101.170906,70.4458877 103.096765,70.4458877 105.022625,71.0874691 C106.627508,71.7290504 108.232391,72.6914225 109.516298,73.9745853 C111.442157,75.8993295 111.763134,77.8240737 111.442157,79.7488179 Z" id="Shape" fill="#166CFF" fill-rule="nonzero"></path><path d="M107.854251,68.6579955 C105.619994,68.0194557 103.385737,67.7001859 101.47066,68.0194557 C99.5555829,68.6579955 97.9596852,68.6579955 96.044608,68.6579955 C94.7678898,68.0194557 94.1295308,67.0616461 93.4911717,65.7845667 C92.8528126,64.5074872 92.8528126,63.2304078 93.1719921,61.9533283 C93.4911717,60.6762488 94.1295308,59.3991694 94.7678898,58.1220899 C95.0870694,57.4835502 95.7254284,56.2064707 96.6829671,54.6101214 C99.5555829,48.8632638 100.193942,41.2007871 97.9596852,32.2612308 C97.3213261,30.0263418 96.6829671,27.7914527 95.4062489,25.8758335 C94.7678898,24.9180239 93.4911717,22.0445951 89.3418377,23.3216746 C87.1075809,23.9602143 86.7884013,29.7070719 86.4692218,33.2190404 C85.8308627,38.965898 85.1925036,42.4778665 84.8733241,43.754946 C83.9157855,48.543994 81.6815287,53.0137721 78.4897333,56.8450104 C75.6171175,60.6762488 71.1486039,63.2304078 66.3609108,64.5074872 C63.8074745,64.5074872 61.5732177,65.1460269 59.3389609,66.1038365 C56.7855246,67.380916 54.5512679,69.6158051 52.9553702,72.169964 C51.678652,74.0855832 50.7211134,76.0012024 50.0827543,78.2360914 C49.7635748,80.1517106 49.4443952,81.7480599 49.4443952,83.6636791 L49.1252157,100.904252 C48.8060361,103.777681 49.1252157,106.33184 49.7635748,108.885998 C50.4019338,110.801618 51.3594725,112.717237 52.3170111,114.632856 C54.5512679,118.144825 57.7430632,121.337523 61.2540382,123.572412 C65.0841927,125.807301 68.9143471,127.403651 73.3828607,128.36146 C76.8938356,129 80.7239901,129 84.234965,129 C88.384299,129 92.5336331,128.68073 96.3637875,127.403651 C97.3213261,127.084381 97.9596852,126.765111 98.9172238,126.126571 C99.5555829,125.488031 100.193942,124.849492 100.513122,123.891682 C100.832301,122.614603 100.513122,121.018253 99.8747625,119.741174 C99.2364034,118.464094 99.2364034,116.867745 99.2364034,115.271396 C99.5555829,114.632856 99.8747625,113.994316 100.513122,113.355777 C101.151481,112.717237 101.78984,112.397967 102.428199,112.078697 C103.385737,111.759427 104.981635,111.120888 106.896712,110.163078 C108.17343,109.524538 109.130969,108.566729 109.769328,107.289649 C110.407687,106.01257 111.046046,104.73549 111.046046,103.458411 C111.046046,102.181331 111.046046,100.584982 110.407687,99.6271724 C109.769328,98.3500929 109.130969,97.3922833 107.854251,96.4344737 C106.258353,95.4766641 104.981635,94.5188546 104.024096,93.8803148 C103.385737,93.561045 102.747378,93.2417751 102.428199,92.6032354 C102.109019,91.9646956 101.78984,91.3261559 101.78984,90.6876162 C101.47066,88.771997 102.747378,87.1756477 104.981635,85.8985682 C104.981635,85.8985682 105.939174,85.5792983 107.854251,84.9407586 C108.81179,84.6214887 109.769328,83.982949 110.726867,83.3444093 C111.684405,82.7058695 112.322765,81.7480599 112.961124,80.7902503 C113.599483,79.8324407 113.918662,78.8746312 113.918662,77.5975517 C114.237842,75.3626626 113.599483,73.1277736 112.322765,71.2121544 C111.365226,70.5736147 109.769328,69.2965352 107.854251,68.6579955 Z" id="Path" fill-rule="nonzero"></path></g></g></g></g></svg>