<svg xmlns="http://www.w3.org/2000/svg" xmlns:xlink="http://www.w3.org/1999/xlink" width="350px" height="250px" viewBox="0 0 350 250"><title>Group 50</title><g id="Page-1" stroke="none" stroke-width="1" fill="none" fill-rule="evenodd"><g id="Group-50"><rect id="Rectangle" fill="#FFFFFF" x="0" y="0" width="350" height="250"></rect><g id="Logo" transform="translate(70.489796, 46.000000)" fill-rule="nonzero"><path d="M38.8193945,5.38513426 L67.1807425,49.9355801 C68.7537522,52.4096544 72.7307639,50.1242807 71.1426453,47.6216916 L42.8397185,3.07099421 C41.2665409,0.58224322 37.289865,2.88179043 38.8776479,5.38513426 L38.8193945,5.38513426 Z" id="Path" fill="#FC6078"></path><path d="M51.2715243,47.8268217 L63.476079,58.4032271 C65.7255462,60.3505505 69.0046778,57.0755453 66.755041,55.1137721 L54.5505711,44.5968658 C52.3008496,42.6495424 49.0070594,45.9236977 51.2715243,47.8863208 L51.2715243,47.8268217 Z" id="Path" fill="#FC6078"></path><path d="M92.6943966,162.998465 C125.552304,161.992262 158.429509,161.89538 191.326012,162.707818 C194.238268,162.773424 194.238268,158.60367 191.326012,158.537302 C158.448807,157.734018 125.571602,157.831663 92.6943966,158.828712 C89.7821399,158.921017 89.7821399,163.091533 92.6943966,162.998465 Z" id="Path" fill="#374151"></path><path d="M11.7130865,162.997343 C24.5778315,162.424755 37.4425766,162.293368 50.3073217,162.603182 C53.2444982,162.673741 53.2444982,158.239834 50.3073217,158.169274 C37.4327601,157.850539 24.5680996,157.981926 11.7130865,158.563435 C8.77590996,158.690767 8.77590996,163.123864 11.7130865,162.997343 Z" id="Path" fill="#374151"></path><path d="M190.954533,5.10448399 C191.01194,50.0176241 190.53022,94.9263452 189.510204,139.830064 C189.510204,142.723312 193.986293,142.723312 194.058675,139.830064 C195.097827,94.9355169 195.579547,50.0276296 195.502172,5.10448399 C195.456413,4.53142066 195.196833,3.99662825 194.775848,3.60658166 C194.354031,3.21661844 193.801592,3 193.228353,3 C192.654282,3 192.101843,3.21661844 191.680857,3.60658166 C191.25904,3.99662825 190.99946,4.53142066 190.954533,5.10448399 Z" id="Path" fill="#374151"></path><path d="M191.153705,138.648313 C172.696622,139.40387 154.279003,139.970956 135.900007,140.348734 C119.463951,140.682955 102.124436,142.325579 85.7463149,140.799388 L87.9898471,143.096213 C87.9898471,118.471938 87.9512234,93.8468252 87.8739761,69.2225502 C87.8152009,57.1378336 87.7471896,45.0631687 87.6699423,32.9976342 C87.6699423,22.9384289 88.9957422,11.5564134 87.0141793,1.67168982 L84.799195,4.57899102 C120.983709,4.70497296 157.158986,5.48507254 193.325027,6.91928976 C196.238596,7.03563876 196.238596,2.45664774 193.325027,2.3403825 C157.158986,0.896364821 120.983709,0.116265244 84.799195,0 C84.4473837,0.00636610844 84.1006102,0.0923085724 83.7865828,0.251293754 C83.4725555,0.410362701 83.1988311,0.638286136 82.9855612,0.918143613 C82.7722913,1.19791733 82.6253534,1.5222538 82.5556628,1.86677754 C82.4868119,2.21130127 82.496048,2.56704946 82.5842108,2.90730121 C84.6530968,13.1844619 83.0359399,25.424143 83.0947151,35.9049354 C83.1820382,47.9899033 83.2450116,60.0645682 83.2836353,72.130019 C83.3810341,95.7951894 83.4196578,119.455334 83.400346,143.11129 C83.4079028,143.713558 83.6513999,144.289858 84.0787794,144.71622 C84.5061588,145.142582 85.0838348,145.385499 85.6883794,145.393038 C102.065661,146.846353 119.405175,145.276605 135.842071,144.942384 C154.298314,144.583872 172.716773,144.016786 191.095769,143.241963 C194.009338,143.11129 194.009338,138.531881 191.095769,138.662553 L191.153705,138.648313 Z" id="Path" fill="#374151"></path><path d="M179.349109,15.0005066 L137.671299,15.7320676 C134.789839,15.7320676 134.789839,20.0537496 137.671299,19.9994934 L179.349109,19.2679324 C182.230569,19.2679324 182.230569,14.9462504 179.349109,15.0005066 Z" id="Path" fill="#166CFF"></path><path d="M178.107186,17.1731289 C179.548696,55.0623429 179.350794,92.9474663 177.513479,130.826746 C177.372585,133.724418 181.824166,133.724418 181.965874,130.826746 C183.803189,92.9758503 184.001091,55.0915617 182.55958,17.1731289 C182.446377,14.2756237 177.993982,14.2756237 178.107186,17.1731289 Z" id="Path" fill="#166CFF"></path><path d="M207.39408,90.1832922 L140.626329,90 C140.050347,90.0475855 139.512932,90.3225238 139.12056,90.7692986 C138.728188,91.2151921 138.510204,91.8003172 138.510204,92.4083539 C138.510204,93.0155093 138.728188,93.6015157 139.12056,94.0474092 C139.512932,94.494184 140.050347,94.7682411 140.626329,94.8167078 L207.39408,95 C207.970061,94.9524145 208.508315,94.6774762 208.900686,94.2307014 C209.29222,93.7848079 209.510204,93.1996828 209.510204,92.5916461 C209.510204,91.9844907 209.29222,91.3993655 208.900686,90.9525908 C208.508315,90.505816 207.970061,90.2317589 207.39408,90.1832922 Z" id="Path" fill="#374151"></path><path d="M161.31315,77.0012383 C150.767795,77.3384016 140.237632,77.5876828 129.706625,77.1330616 C126.778064,77.0156036 126.778064,81.6353331 129.706625,81.752791 C140.237632,82.2074123 150.767795,81.9581311 161.31315,81.6201228 C164.242556,81.5322406 164.242556,76.9133561 161.31315,77.0012383 Z" id="Path" fill="#374151"></path><path d="M122.242801,22.6891858 C120.691299,19.7032045 118.250761,17.2785649 115.263504,15.7534256 C112.275425,14.2282864 108.888389,13.6785825 105.575234,14.180992 C104.469481,14.3170148 103.418728,14.7416734 102.52641,15.4127908 C101.589762,16.3698202 100.90431,17.5463185 100.532442,18.8361416 C99.2789266,22.1878493 98.0106352,25.7544037 98.7092216,29.2636766 C99.6631081,34.0333891 104.178882,37.41382 108.88018,38.545335 C110.254368,38.9576129 111.695869,39.0914072 113.121774,38.9389593 C114.547678,38.7865114 115.928433,38.3508752 117.186053,37.6573074 C117.965088,37.1008355 118.656286,36.4296356 119.237484,35.6663231 C120.937569,33.6135177 122.027725,31.1203714 122.383175,28.4727964 C122.738625,25.8253039 122.344592,23.1306821 121.245406,20.6982014" id="Path" fill="#FC6078"></path><path d="M125.08002,22.0700348 C121.312865,15.2419417 113.325891,10.6946794 105.426935,12.3363417 C97.7752663,13.9053389 94.8949932,25.8036656 97.3821208,32.283167 C100.088035,39.2565067 109.383538,43.6146556 116.51213,41.4355393 C124.97859,38.8497327 127.26202,27.9102005 124.236727,20.5881855 C123.131058,17.9150636 118.69413,19.1353855 119.872728,21.8085074 C121.95246,26.8206423 121.457884,34.3751355 115.726677,36.8012964 C111.056712,38.7916341 104.089066,35.6681224 101.921317,31.1790424 C100.46693,28.2734424 101.324474,24.45258 102.517322,21.5905958 C103.798189,18.4816506 105.339755,16.6075101 108.801783,16.6075101 C111.371061,16.6858679 113.873277,17.4475122 116.049409,18.813834 C118.22554,20.1801558 119.997629,22.1015956 121.181257,24.3799986 C122.636483,26.9514061 126.563747,24.6414423 125.138699,22.0700348 L125.08002,22.0700348 Z" id="Path" fill="#FC6078"></path><path d="M119.581837,61.9136638 C129.621598,59.2085202 138.757368,49.3132802 142.609629,39.9389782 C144.506748,35.3385669 142.200941,30.3764416 137.254642,34.6007171 C133.095444,38.1450804 126.92224,50.7312922 132.146885,55.5488653 C138.71364,61.6102209 148.199234,47.9536225 150.942319,43.6278937 L148.111778,41.9789649 C146.185227,45.7253178 142.02603,54.9986666 147.746818,57.5887686 C153.467606,60.178037 160.982921,51.65746 163.697415,47.9244453 L160.866033,46.2755165 C159.407034,48.7347379 155.553932,56.6334236 158.852026,59.0784733 C162.485648,61.7694451 169.724299,54.5935203 171.986378,52.5686224 C173.562264,51.1214331 171.227026,48.8647849 169.665435,50.2536197 C169.271883,50.6012453 163.828599,55.6647405 162.58824,55.4471619 C159.56765,54.8827914 163.361888,48.4454668 163.667983,47.9244453 C163.842054,47.5559789 163.871486,47.1358272 163.749553,46.7473535 C163.627619,46.3580463 163.364411,46.0279271 163.010383,45.8220194 C162.655514,45.6161117 162.236735,45.5477537 161.834774,45.6319507 C161.432814,45.7153142 161.077104,45.9453973 160.836601,46.2755165 C159.377602,48.2720708 155.480772,53.6681862 152.402159,53.7840613 C145.018028,54.0441553 149.278977,46.8107098 150.942319,43.6570709 C151.117231,43.2886045 151.145822,42.8684528 151.023889,42.4791455 C150.902796,42.0906719 150.638747,41.7605527 150.284719,41.554645 C149.930691,41.3479037 149.511912,41.2803793 149.109952,41.3637427 C148.707991,41.4479398 148.351441,41.6771893 148.111778,42.0081421 C146.477027,44.6115823 141.821686,52.380221 138.158632,52.8287163 C130.861957,53.7407124 134.729355,44.6407595 135.91169,42.2540642 C136.524722,41.0094481 139.807679,34.0944509 139.428423,38.1595856 C138.654776,46.5214386 126.294913,56.7634706 118.720734,58.8033739 C118.301114,58.9167482 117.943722,59.1910139 117.727605,59.5653158 C117.510204,59.9396176 117.453465,60.3839447 117.56783,60.7999283 C117.682196,61.2167455 117.958018,61.5710401 118.336433,61.7852841 C118.714006,61.9995281 119.162217,62.0562153 119.581837,61.942841 L119.581837,61.9136638 Z" id="Path" fill="#374151"></path><path d="M117.495156,146.60247 C117.031188,121.854615 116.49449,97.7770033 116.044733,73.0291479 C79.4857099,71.7675123 42.9173235,71.666011 6.33915623,72.7238052 L5.68634041,72.4469836 C5.92810547,97.515281 5.20272669,122.568479 3.51020408,147.606578 L4.19202836,148 C42.4192474,146.937173 79.2683554,145.990946 117.510204,146.54375" id="Path" fill="#FFFFFF"></path><path d="M119.510204,146.237194 C119.044894,121.89344 118.506644,97.5646695 118.055587,73.2217472 C118.022052,72.6348398 117.767179,72.082897 117.340436,71.6749755 C116.913692,71.2678866 116.347775,71.0356211 115.756706,71.0256311 C96.9489728,70.3904391 78.1311788,70.0482846 59.3046654,70 C50.1288425,70 40.9577984,70.0532795 31.7917008,70.1590061 C26.9418325,70.236428 22.0920481,70.3230072 17.2422637,70.4187439 C13.9395711,70.4187439 8.59991197,71.7340825 5.60273078,70.520308 C5.26200672,70.4295663 4.90493395,70.4179114 4.55892799,70.4861758 C4.21292204,70.5536077 3.88712143,70.6984615 3.60634267,70.9107471 C3.32556391,71.1230328 3.09726873,71.395258 2.93889577,71.7082753 C2.78060664,72.0212926 2.6964317,72.3659446 2.69282659,72.7164241 C2.89655678,97.6037967 2.16908073,122.467027 0.510204082,147.306115 C0.505116561,147.704047 0.60756853,148.096983 0.807190573,148.442468 C1.00681262,148.787952 1.29631069,149.07433 1.64525103,149.270798 C3.5803524,150.368856 5.57363845,149.920975 7.78515892,149.848548 L23.4985409,149.443957 C33.8867681,149.174229 44.2702164,148.943629 54.648802,148.75049 C75.4692721,148.389188 96.2891553,148.274304 117.12413,148.591484 C120.034201,148.591484 120.034201,144.084368 117.12413,144.041078 C85.9005928,143.56406 54.6924824,144.041078 23.4985409,144.893551 L12.0917467,145.182426 C10.1931994,145.451321 8.27000322,145.504601 6.35929916,145.341432 C3.27484097,144.662118 5.73368821,146.121478 5.28263126,144.44567 C4.43878587,141.353792 5.79187288,136.210651 5.96642688,132.974751 C6.17015707,129.121975 6.34957377,125.298335 6.50476083,121.503833 C7.17405221,105.255238 7.43110437,88.9933235 7.2759173,72.7164241 L4.36601312,74.9117076 C6.53385317,75.7933175 9.12365783,75.1581255 11.4224553,75.099851 C16.2723236,74.9841345 21.0978783,74.8834028 25.8992035,74.7968236 C36.0255996,74.6228326 46.1616373,74.5412483 56.3074842,74.5512382 C76.0947153,74.5512382 95.8766645,74.8925603 115.654422,75.5768694 L113.370632,73.2941741 C113.821688,97.6370964 114.359939,121.965866 114.825248,146.308789 C114.825248,149.198371 119.466607,149.198371 119.40792,146.308789 L119.510204,146.237194 Z" id="Path" fill="#374151"></path><path d="M4.56476826,148.449141 C18.3156358,137.358952 32.6313944,126.973247 47.455834,117.333024 C49.9202063,115.721579 47.6171952,111.758227 45.1235768,113.383895 C29.9797958,123.253369 15.3510353,133.875854 1.29367439,145.211191 C-1.00933664,147.069456 2.27646486,150.293183 4.56476826,148.449141 Z" id="Path" fill="#374151"></path><path d="M4.09497612,73.9942042 C21.4099558,93.8803331 39.917795,112.711006 59.5174369,130.382353 C61.7132737,132.359238 64.9779686,129.131721 62.7819632,127.140596 C43.1750668,109.47595 24.6668057,90.6452771 7.359418,70.7524469 C5.42710528,68.5142104 2.17725676,71.770208 4.09497612,73.9942042 Z" id="Path" fill="#374151"></path><path d="M113.637934,72.6300821 C95.6475415,91.2943484 77.1234153,109.437941 59.1619156,128.088045 C57.1244865,130.19823 60.3323819,133.42224 62.369811,131.312055 C80.3457989,112.647789 98.8699251,94.518358 116.860318,75.911574 C118.89783,73.801389 115.675447,70.5773794 113.637934,72.6883976 L113.637934,72.6300821 Z" id="Path" fill="#374151"></path><path d="M73.2995687,116.749083 C86.7110613,127.36889 100.356885,137.64572 114.237866,147.580406 C116.609325,149.289455 118.86486,145.335609 116.522383,143.64158 C102.977578,133.88047 89.6372955,123.839803 76.5040187,113.51958 C74.2335789,111.737929 71.0001481,114.967432 73.2995687,116.749083 Z" id="Path" fill="#374151"></path><path d="M21.8308664,114.835304 C18.4493662,116.877776 17.1509648,121.122145 16.2662891,124.975048 C15.6099353,127.784595 15.0392537,130.768592 16.0951093,133.506356 C17.0772966,135.753326 18.876658,137.528699 21.1174527,138.460207 C23.3443525,139.362501 25.7120111,139.853295 28.1088574,139.909219 C30.3761267,140.174649 32.6727481,139.855799 34.7864324,138.981885 C38.7672265,136.99784 40.3510098,132.014775 40.4936596,127.509984 C40.6077795,124.46756 40.1655238,121.165549 38.0966489,118.963652 C37.2905744,118.170702 36.3778621,117.497946 35.385644,116.964583 C33.1468225,115.582346 30.6744992,114.634979 28.0946335,114.169226 C25.4979952,113.713488 22.8261266,114.185085 20.532465,115.501382" id="Path" fill="#FC6078"></path><path d="M20.1137099,112.892464 C14.2219191,117.303551 10.3132698,128.772717 13.862703,135.698615 C17.5702144,142.917682 30.1728386,145.138477 36.5820067,140.756199 C42.3300447,136.830619 43.9538872,126.669697 41.2091711,120.508918 C37.6597379,112.568792 25.9767667,109.981112 18.834758,113.612676 C16.2337946,114.950576 18.5186014,118.935467 21.1196476,117.611971 C26.3072489,114.980231 35.8203492,117.479791 37.5303936,123.758346 C38.5363313,127.522937 37.7603482,133.56594 34.8288199,136.256991 C31.049432,139.74197 20.9184269,138.638775 18.1019173,134.007388 C15.4003435,129.5963 18.5186014,119.773455 22.4129251,116.891759 C24.7552827,115.156472 22.4992099,111.142772 20.1281183,112.892464 L20.1137099,112.892464 Z" id="Path" fill="#FC6078"></path></g></g></g></svg>