<svg xmlns="http://www.w3.org/2000/svg" xmlns:xlink="http://www.w3.org/1999/xlink" width="350px" height="250px" viewBox="0 0 350 250"><title>Group 64</title><g id="Page-1" stroke="none" stroke-width="1" fill="none" fill-rule="evenodd"><g id="Group-64"><rect id="Rectangle-Copy-59" fill="#FFFFFF" x="0" y="0" width="350" height="250"></rect><g id="Mailbox-Copy" transform="translate(82.000000, 15.000000)" fill-rule="nonzero"><path d="M142.327,60.7684 C137.114,61.9644 132.322,64.5531 128.46,68.2595 C124.598,71.9659 121.809,76.6515 120.391,81.8187 C119.371,86.004 119.219,90.354 119.945,94.6 C120.671,98.846 122.258,102.897 124.609,106.503 C129.403,113.711 136.603,118.971 144.917,121.338 C156.388,124.661 170.346,121.679 176.963,111.725 C180.101,107.008 181.403,101.341 181.877,95.63 C182.691,87.278 181.966,78.2732 177.037,71.479 C171.56,63.7947 161.687,60.5162 152.318,59.7003 C144.029,59.0179 134.556,60.4866 129.582,67.1176 L142.327,60.7684 Z" id="Path" fill="#FC6078"></path><path d="M141.705,58.5287 C137.081,59.664 132.768,61.8166 129.077,64.8303 C125.386,67.844 122.411,71.6433 120.368,75.9525 C118.324,80.2617 117.263,84.973 117.261999,89.744 C117.261,94.515 118.32,99.227 120.361,103.537 C128.413,120.893 151.045,130.239 168.585,121.739 C186.125,113.239 189.811,84.919 178.946,69.9958 C168.585,55.7398 140.136,51.4674 127.954,65.4416 C127.583,65.8513 127.367,66.3788 127.345,66.9319 C127.322,67.4849 127.495,68.0282 127.832,68.4667 C128.169,68.9052 128.649,69.211 129.188,69.3305 C129.727,69.4501 130.291,69.3757 130.781,69.1206 L143.437,62.7862 C146.131,61.4511 143.777,57.4309 141.083,58.7512 L128.324,65.1004 L131.151,68.7645 C141.157,57.2826 164.529,60.6797 174.002,71.3903 C185.074,83.8958 181.196,111.221 165.536,117.956 C151.474,124.009 133.594,117.422 125.971,104.279 C116.468,87.96 124.491,67.7409 142.889,63.0235 C145.849,62.2818 144.621,57.7721 141.705,58.5287 Z" id="Path" fill="#FC6078"></path><path d="M146.234,81.2847 L145.302,80.8694 L146.368,83.5099 C146.78,82.0345 147.565,80.6906 148.647,79.6084 C151.045,77.4277 154.657,78.125 154.849,81.2699 C155.027,84.029 152.229,86.952 150.704,89.028 C147.863,92.915 144.429,96.653 143.57,101.519 C143.378,102.632 143.866,104.219 145.198,104.397 C150.846,105.205 156.592,104.984 162.161,103.744 C165.121,103.092 163.848,98.582 160.918,99.294 C156.17,100.377 151.267,100.599 146.442,99.947 L148.07,102.825 C149.55,94.428 164.455,85.78 158.431,76.3596 C153.428,68.5121 143.836,76.1075 141.838,82.2935 C141.706,82.7915 141.74,83.3193 141.935,83.7961 C142.13,84.273 142.476,84.673 142.919,84.934 L143.851,85.349 C146.575,86.551 148.943,82.5308 146.205,81.3144 L146.234,81.2847 Z" id="Path" fill="#FFFFFF"></path><path d="M139.144,29.5416 L144.325,48.2629 C144.561,48.7634 144.966,49.1641 145.468,49.394 C145.971,49.6239 146.538,49.6682 147.07,49.5189 C147.602,49.3697 148.064,49.0365 148.374,48.5786 C148.685,48.1206 148.823,47.5673 148.765,47.0168 L143.585,28.2955 C143.349,27.7949 142.944,27.3942 142.441,27.1643 C141.939,26.9344 141.371,26.8902 140.84,27.0394 C140.308,27.1887 139.846,27.5218 139.535,27.9798 C139.225,28.4378 139.087,28.9911 139.144,29.5416 Z" id="Path" fill="#166CFF"></path><path d="M163.138,51.1707 C170.361,35.7032 176.834,19.9241 182.558,3.8335 C183.579,1.0001 179.064,-0.2312 178.117,2.5874 C172.522,18.3022 166.207,33.7104 159.171,48.812 C157.898,51.5267 161.924,53.9003 163.182,51.1707 L163.138,51.1707 Z" id="Path" fill="#166CFF"></path><path d="M109.467,90.601 C94.162,90.379 78.857,90.601 63.582,91.269 C50.571,91.862 37.116,92.07 24.2683,94.384 C14.8544,96.119 6.743,100.57 3.9307,110.153 C0.3043,122.51 0.9704,137.345 1.1628,150.103 C1.296,161.318 1.0592,174.09 6.4026,184.326 C11.2872,193.657 20.5826,197.677 30.5442,199.279 C44.413,201.475 58.904,200.985 72.907,200.852 C87.866,200.703 102.816,200.051 117.756,198.894 C129.42,197.974 141.735,197.232 147.463,185.364 C153.191,173.497 151.356,157.713 150.571,144.97 C150.394,142.003 145.731,142.003 145.909,144.97 C146.678,157.446 149.698,177.309 140.521,187.575 C134.926,193.835 125.453,193.612 117.756,194.221 C110.059,194.829 102.347,195.274 94.636,195.6 C80.16,196.223 65.678,196.372 51.193,196.045 C37.205,195.719 17.9331,196.401 10.4287,181.967 C4.0047,169.595 5.5441,152.298 5.9882,138.769 C6.373,124.943 4.508,105.183 20.5086,100.066 C33.8302,95.823 49.816,96.565 63.626,95.941 C78.916,95.229 94.236,95.051 109.511,95.274 C112.472,95.274 112.472,90.646 109.511,90.601 L109.467,90.601 Z" id="Path" fill="#374151"></path><path d="M9.0818,105.317 C28.8864,121.378 49.288,136.648 70.287,151.126 C73.04,153.025 76.563,156.689 80.234,156.467 C84.215,156.214 88.286,151.675 91.276,149.45 C101.143,142.003 110.745,134.165 120.08,125.937 C122.33,123.949 119.029,120.641 116.779,122.629 C108.46,129.987 99.895,137.038 91.083,143.783 C88.123,146.068 82.557,151.972 78.428,151.052 C76.666,150.666 72.981,147.343 71.486,146.305 C69.206,144.732 66.932,143.145 64.662,141.543 C46.782,128.983 29.3552,115.82 12.3825,102.053 C10.0587,100.169 6.7431,103.537 9.0818,105.347 L9.0818,105.317 Z" id="Path" fill="#374151"></path><path d="M25.0232,184.459 C35.138,169.476 45.795,154.914 56.995,140.771 C58.845,138.428 55.515,135.105 53.694,137.463 C42.238,151.912 31.3534,166.811 21.0415,182.16 C19.3689,184.667 23.4098,187.011 25.0676,184.519 L25.0232,184.459 Z" id="Path" fill="#374151"></path><path d="M97.137,142.478 C108.702,154.256 120.341,165.966 132.054,177.606 C134.186,179.712 137.487,176.419 135.355,174.298 C123.632,162.668 111.988,150.958 100.423,139.17 C98.321,137.033 95.02,140.341 97.137,142.478 Z" id="Path" fill="#374151"></path></g></g></g></svg>