<svg xmlns="http://www.w3.org/2000/svg" xmlns:xlink="http://www.w3.org/1999/xlink" width="350px" height="250px" viewBox="0 0 350 250"><title>Group 65</title><g id="Page-1" stroke="none" stroke-width="1" fill="none" fill-rule="evenodd"><g id="Group-65"><rect id="Rectangle-Copy-60" fill="#FFFFFF" x="0" y="0" width="350" height="250"></rect><g id="Business-Card-Copy" transform="translate(62.000000, 35.000000)" fill-rule="nonzero"><path d="M135.564596,25.1554327 C135.192247,30.7307632 135.034954,36.3156369 135.092717,41.9101429 C135.13715,42.4791634 135.394862,43.0102789 135.812532,43.3976231 C136.230203,43.7848781 136.778507,44 137.347249,44 C137.915992,44 138.464296,43.7848781 138.881967,43.3976231 C139.299637,43.0102789 139.557349,42.4791634 139.60267,41.9101429 C139.544907,36.32518 139.7022,30.7403064 140.074549,25.1554327 C140.275387,22.2815224 135.779652,22.2815224 135.564596,25.1554327 Z" id="Path" fill="#FC6078"></path><path d="M159.415626,1.53577048 C154.331049,14.2992408 149.595468,27.1927359 145.208884,40.2158976 C144.26678,43 148.813012,44.1979506 149.695712,41.4278501 C154.091579,28.4141806 158.832729,15.516029 163.917306,2.73321613 C164.993996,0.00645723561 160.447764,-1.17666061 159.430477,1.53577048 L159.415626,1.53577048 Z" id="Path" fill="#FC6078"></path><path d="M224.081081,82.399415 C192.825437,98.1128235 162.529916,115.676632 133.354841,135 L132.478955,133.989865 C122.234618,115.344159 112.199515,96.5812703 102.372741,77.7021069 L102.081081,78.0672815 C133.266981,60.5052901 164.657586,42.942572 198.396871,31 C207.503552,48.7235039 214.989798,64.661195 224.081081,82.399415 Z" id="Path" fill="#166CFF"></path><path d="M137.949189,111.819526 C144.916938,101.013366 154.005228,85.1544435 153.074391,71.7932398 C152.142652,58.432946 141.350533,65.2263774 139.480741,74.3164363 C137.757971,82.8878432 137.187021,103.210813 149.71093,104.051575 C161.108273,104.840472 163.120577,87.3491604 163.686115,79.3928566 L158.404155,79.1590082 C158.934516,85.0015776 161.269727,93.0989184 168.797602,91.3145735 C176.326378,89.5302286 178.507351,77.8050535 178.42437,71.1126228 L173.201941,71.57486 C174.168857,77.4529161 177.882283,89.6403284 186.124522,85.4092199 C193.593768,81.5511769 194.707706,71.1590285 195.291283,63.7104577 L190.068854,64.1726949 C190.794041,68.5712279 192.48885,74.1380928 197.854693,74.4228965 C201.747613,74.6103391 203.667916,71.7513837 204.060274,68.3282804 C204.452633,64.9042672 199.170673,64.7086353 198.778315,68.094432 C197.655357,67.8715027 196.661382,67.2209129 196.002039,66.2773302 C195.343598,65.3346574 195.0703,64.1708751 195.238969,63.0298407 C194.730255,59.9515955 190.172581,60.5958159 190.009324,63.4766093 C189.964225,67.327373 189.30849,71.1462897 188.066472,74.7877727 C183.775781,84.7258731 179.407521,76.3692064 178.348604,70.3874199 C178.168209,69.7941548 177.788478,69.283692 177.275255,68.9424736 C176.762032,68.6003452 176.147788,68.4492992 175.536249,68.5148131 C174.924711,68.5794172 174.354663,68.8569415 173.92352,69.2991606 C173.493278,69.7422896 173.227196,70.3219059 173.173979,70.9397388 C173.28402,73.8378206 172.92774,76.7359024 172.11867,79.5193349 C170.516764,84.6585394 164.198436,86.1444319 163.776312,79.421064 C163.754665,78.7477263 163.481367,78.1071456 163.011438,77.6285299 C162.54151,77.1499141 161.910128,76.8669303 161.242668,76.837813 C160.575207,76.8086957 159.921276,77.0343548 159.41166,77.4692946 C158.902947,77.9051443 158.574628,78.5193374 158.494353,79.1881255 C158.367174,82.9369787 157.825088,86.6594442 156.878015,90.2863686 C155.432151,94.9979127 151.235266,104.063404 145.167687,93.1089275 C143.309621,89.7722662 142.855928,71.3728587 147.008616,70.7522961 C149.881403,70.2955184 144.557051,87.0033924 143.483702,89.8514289 C140.827388,96.5556885 137.488281,102.962406 133.518693,108.97058 C131.674156,111.865022 136.140732,114.675752 138.00872,111.787679 L137.949189,111.819526 Z" id="Path" fill="#FFFFFF"></path><path d="M222.556863,80.425898 C191.236175,96.1002366 160.854799,113.565954 131.56535,132.73452 L134.360574,133.084123 C131.316441,129.649518 129.369686,124.467799 127.160395,120.436068 C124.505977,115.584981 121.867001,110.732992 119.241652,105.881906 C113.99277,96.1788296 108.792036,86.4179381 103.640356,76.5983277 C103.461396,76.2975062 103.215213,76.0409497 102.921791,75.8485323 C102.62837,75.6561149 102.294978,75.5332568 101.947051,75.4880884 C101.598215,75.4438234 101.24393,75.4781514 100.911446,75.5892656 C100.578054,75.7012833 100.27464,75.8864737 100.024823,76.1321898 L99.7177751,76.4962471 C99.3344196,76.8964392 99.1100386,77.4203926 99.0836942,77.9714471 C99.0573499,78.523405 99.2308591,79.0663292 99.5742439,79.5008492 C99.9167202,79.9353692 100.405453,80.2325773 100.950508,80.3382713 C101.495563,80.4439654 102.060604,80.3509185 102.542069,80.0762946 C133.643827,62.742469 164.906376,45.4370091 198.598054,33.5023432 L195.99269,32.4398017 C204.774437,49.3958388 213.014763,66.5989471 221.751998,83.5551649 C223.113728,86.1749321 227.094447,83.8605033 225.733626,81.240736 C216.951879,64.2854216 208.726087,47.0962252 199.974318,30.1256438 C199.711783,29.6941953 199.316618,29.3588651 198.846962,29.1698805 C198.377306,28.9809862 197.858595,28.9486456 197.368954,29.0777369 C163.311181,41.1579355 131.668002,58.5797491 100.215592,76.1177359 L103.010817,79.7275946 L103.317865,79.3635372 L99.6887055,78.8973993 C105.269162,89.4939062 110.909575,100.065119 116.607219,110.611941 C120.998546,118.806392 124.935662,129.328823 131.12658,136.329925 C131.488134,136.685852 131.957789,136.914404 132.461966,136.98035 C132.96705,137.046296 133.48031,136.945118 133.921805,136.693982 C163.211254,117.524513 193.59263,100.058795 224.913318,84.3844567 C227.562286,83.0456653 225.235809,79.1015605 222.586841,80.425898 L222.556863,80.425898 Z" id="Path" fill="#166CFF"></path><path d="M18.8878162,118.782238 L72.9986544,160.477916 C75.3197403,162.268267 78.6245071,159.022691 76.2742481,157.232339 L22.1632276,115.522208 C19.8425064,113.731857 16.5377396,116.977433 18.8878162,118.753332 L18.8878162,118.782238 Z" id="Path" fill="#374151"></path><path d="M33.8679554,95.7917592 C52.0771414,110.48942 70.1449457,125.367182 88.0729071,140.425044 C90.318541,142.320174 93.5851646,139.083792 91.3096612,137.173277 C73.402518,122.106365 55.3387867,107.228603 37.1199158,92.5399921 C34.8303829,90.7027845 31.5638499,93.9979929 33.8679554,95.7917592 Z" id="Path" fill="#374151"></path><path d="M76.0892428,160.402554 C79.0437884,157.987486 81.0538331,154.550521 83.2546119,151.574079 L91.6469152,140.271632 C93.4047873,137.913683 89.3709431,135.641413 87.6277428,137.985974 L80.2413789,148.051435 C77.9654068,151.143008 75.8086435,154.73705 72.8540979,157.225302 C70.564371,159.122728 73.8737921,162.300872 76.1341754,160.431113 L76.0892428,160.402554 Z" id="Path" fill="#374151"></path><path d="M22.3840106,117.918416 C27.1964953,110.220187 32.2831854,102.699532 37.6442602,95.3573707 C39.3911101,92.941266 35.4498102,90.613488 33.7172978,93.0001505 C28.3850773,100.352433 23.2983872,107.873088 18.4570482,115.562115 C16.8544697,118.096909 20.7959489,120.438488 22.3840106,117.918416 Z" id="Path" fill="#374151"></path><path d="M36.8778696,110.925629 C36.2726805,111.108181 35.7612031,111.485571 35.4393574,111.988465 C35.1175117,112.490481 35.0073813,113.082896 35.1298017,113.655124 C35.2896684,114.219454 35.6192915,114.732002 36.0813206,115.133967 C36.5433497,115.536808 37.1193499,115.812391 37.7441262,115.931751 C39.0102895,116.134489 40.3135151,115.881725 41.379485,115.224365 C41.8309524,114.998808 42.2193372,114.681099 42.5144905,114.296687 C42.8096438,113.911399 43.0035001,113.469062 43.0810811,113.003907 C43.0672548,112.520321 42.9177578,112.048145 42.6468966,111.632139 C42.3760354,111.216132 41.9928354,110.870337 41.5341668,110.628983 C40.696427,110.169094 39.725897,109.953192 38.7508542,110.008484 C37.7759075,110.064654 36.8423436,110.389384 36.0734473,110.939672 L36.8778696,110.925629 Z" id="Path" fill="#FC6078"></path><path d="M36.3998772,109.04564 C35.6708698,109.290591 35.0094837,109.709318 34.4705028,110.26762 C33.9316123,110.825923 33.5308571,111.508088 33.3015054,112.255881 C33.0721538,113.004598 33.0208955,113.798608 33.151889,114.571358 C33.2829729,115.345033 33.5926021,116.074339 34.0549215,116.700119 C35.0545042,117.927645 36.466956,118.727201 38.014379,118.941649 C39.561802,119.15702 41.1318257,118.77157 42.4152728,117.862017 C45.1826803,116.075263 46.1148225,112.42596 43.6678926,109.895111 C42.5268298,108.788673 41.0445871,108.124071 39.4761002,108.015923 C37.907523,107.90685 36.3510597,108.360702 35.0744832,109.29891 C33.3412826,110.594838 33.763644,113.766256 36.2251288,113.677519 L37.0116322,113.677519 C39.9246784,113.677519 39.9246784,108.941189 37.0116322,108.986482 L36.2251288,108.986482 L37.3903292,113.349378 C37.6871212,113.078545 38.0424942,112.883509 38.4273385,112.779983 C38.8120924,112.676457 39.2154693,112.667213 39.6042913,112.754101 C39.7847351,112.779983 39.9581274,112.843762 40.1134393,112.940818 C40.2688415,113.037874 40.4029087,113.167282 40.5072334,113.319799 C40.5072334,113.39467 40.6820723,113.39467 40.3033753,113.66273 C39.6916203,114.064819 38.8468975,114.615727 38.060394,114.198848 C37.9293101,114.198848 37.4340841,113.64794 37.6233873,113.573069 C40.3762399,112.575703 39.225504,108.017771 36.3998772,109.04564 Z" id="Path" fill="#FC6078"></path><path d="M4.43852466,158.880266 C11.8116607,146.762052 19.5569223,134.909935 27.6742182,123.323017 C29.3632779,120.903869 25.3536754,118.615972 23.6792928,121.019837 C15.542397,132.606755 7.79221262,144.468761 0.428922146,156.606752 C-1.11327474,159.126586 2.8816506,161.429766 4.42384749,158.909033 L4.43852466,158.880266 Z" id="Path" fill="#374151"></path><path d="M46.3882607,198.762418 C53.8949538,184.306166 62.0033726,170.185937 70.7138844,156.402639 C72.3118738,153.886099 68.2718994,151.574806 66.6889715,154.076815 C57.9689085,167.860113 49.8604897,182.003955 42.3636233,196.509248 C40.9876075,199.142941 45.0121531,201.484204 46.3882607,198.835072 L46.3882607,198.762418 Z" id="Path" fill="#374151"></path><path d="M46.5666766,100.469745 C49.5914853,91.8073986 53.2698525,83.3915634 57.5697878,75.2965559 C61.6091264,67.776138 65.8656588,58.9570026 73.9006636,55.2049503 C76.5650401,53.9633291 74.2484254,50.006364 71.5984266,51.2329407 C63.4767959,55.0146288 59.0610299,63.1622013 54.8624578,70.7406219 C49.8646625,79.8524899 45.6367058,89.3721897 42.2233385,99.1991228 C41.2388222,102.002287 45.6545882,103.200406 46.5666766,100.425337 L46.5666766,100.469745 Z" id="Path" fill="#374151"></path><path d="M69.4872549,71.9673694 C75.0905485,63.7863991 88.3149802,43.5060678 100.670961,51.5000138 C103.177481,53.1276255 105.506467,49.1954673 103.014589,47.582249 C87.5334658,37.5861957 72.7020794,59.1054286 65.4771892,69.676948 C63.8111176,72.1113029 67.8363743,74.3874204 69.4872549,71.9673694 Z" id="Path" fill="#374151"></path><path d="M84.4680219,72.946892 C91.0086043,63.0881565 101.531918,49.5171207 114.876713,50.6674873 C117.81587,50.9150403 117.81587,46.2990226 114.876713,46.0805723 C99.7239077,44.7846023 87.9216683,59.3897749 80.4706952,70.6313364 C78.8250591,73.106866 82.8223858,75.4079607 84.4680219,72.946892 Z" id="Path" fill="#374151"></path><path d="M88.1535816,76.8565954 C88.7860197,73.4286312 91.4909929,70.8028794 94.1229573,68.4831635 C98.1210975,64.6884995 102.689618,61.5339757 107.665163,59.132771 C112.715541,56.7207011 118.511521,56.338609 123.839333,58.0679834 C129.014739,59.9793496 133.175323,64.9827648 133.072198,70.4533828 C133.124217,71.3570036 132.947171,72.2588135 132.556574,73.0773237 C132.165978,73.8949285 131.57552,74.602976 130.838132,75.1353698 C129.442752,75.7193732 127.894967,75.8379848 126.426579,75.4712849 C121.315056,74.5513664 116.121398,74.1602199 110.929565,74.3041836 C108.901748,74.3458334 106.902222,74.7867786 105.0478,75.6025725 C101.962269,77.3563936 99.6223394,80.15961 98.4605881,83.4943147 C96.1672016,89.0228803 95.7264114,95.5582859 98.4605881,100.883129 C99.2718975,102.61522 100.575103,104.075681 102.210499,105.084332 C107.194257,107.884832 114.178454,105.244594 118.383756,109.752738 C119.351122,110.82658 120.00455,112.142172 120.273769,113.557361 C120.542989,114.972551 120.418874,116.433918 119.914201,117.783916 C119.408616,119.13482 118.54255,120.322747 117.407264,121.220935 C116.271979,122.119123 114.912191,122.693167 113.473007,122.881496 C110.560871,123.127774 107.629571,122.760169 104.871667,121.802222 C100.659063,120.57174 96.5687496,118.960072 92.6527442,116.988042 C92.4191163,116.828686 92.1544596,116.72094 91.8761139,116.671141 C91.5968555,116.620437 91.3112089,116.629491 91.035601,116.696493 C90.6997608,116.878485 90.4278033,117.158263 90.2562328,117.498705 L82.0810811,130" id="Path" fill="#FFFFFF"></path><path d="M89.6920433,77.6133128 C92.3187724,69.0439231 105.41008,60.8660146 113.798318,59.8220646 C117.042995,59.2541918 120.384057,59.7212694 123.347685,61.1558007 C125.133068,62.1133549 131.504417,67.85508 129.457803,70.6386467 C128.006616,72.5384558 123.551265,72.8138426 121.374035,72.8138426 C119.196804,72.8138426 117.106951,72.2774683 114.988273,72.1757732 C108.776365,71.885987 102.78245,72.3935627 98.6027442,77.4684198 C94.8347032,82.3209875 93.0313041,88.4136958 93.5528666,94.5343028 C93.944714,99.2464772 95.9471896,104.495026 100.184547,107.032904 C102.527524,108.17045 105.084892,108.79772 107.6882,108.874216 C110.169901,109.164002 114.785593,109.584282 116.280018,112.179758 C118.558138,116.153068 115.336882,119.052729 112.274166,120.111078 C107.426968,121.764299 99.7062226,117.950282 95.3661744,116.008175 C93.9149877,115.355706 91.9998896,113.920275 90.2721577,114.282057 C85.5844012,115.225212 81.7821298,125.041042 79.4598707,128.63727 C77.8492426,131.116651 81.7965425,133.407042 83.4080715,130.94206 C85.0186996,128.477078 86.6734668,124.968146 88.7777326,122.648957 C91.4044617,119.748396 91.6801061,119.748396 95.4391391,120.995736 C99.6773971,122.343871 103.653523,124.374174 108.138599,124.910549 C114.349607,125.635014 120.59034,122.851447 121.447,116.051373 C122.15773,110.440141 118.166291,106.249942 113.00021,104.929705 C106.410867,103.233286 100.243099,105.002602 98.3712389,96.1146271 C96.643507,87.9511179 100.779975,77.5836143 109.879843,76.7430545 C116.54125,76.1337837 129.239809,81.9484053 133.100633,74.4229656 C136.003006,68.7685363 131.982741,61.6345778 127.294985,58.3137368 C120.198493,53.2247504 110.721189,54.5879152 103.406704,58.4298312 C96.0922182,62.2726473 87.6310158,68.4787501 85.1925537,76.3947712 C84.3367949,79.2953323 88.748907,80.4256782 89.5470147,77.6133128 L89.6920433,77.6133128 Z" id="Path" fill="#374151"></path><path d="M94.9118547,115.826941 C93.2670068,114.96669 91.767509,113.866637 90.4657978,112.566899 C89.2505606,111.345609 88.4649342,109.693748 87.1457441,108.588346 C84.8928177,106.677963 81.5727641,109.866689 83.8404095,111.791335 C85.3224284,112.997471 86.1678508,114.835646 87.5459168,116.099726 C89.039895,117.517135 90.7316597,118.725945 92.5706143,119.690497 C95.2089944,121.126627 97.5649538,117.1766 94.9274936,115.784152 L94.9118547,115.826941 Z" id="Path" fill="#374151"></path></g></g></g></svg>