<svg xmlns="http://www.w3.org/2000/svg" xmlns:xlink="http://www.w3.org/1999/xlink" width="350px" height="250px" viewBox="0 0 350 250"><title>Group 66</title><g id="Page-1" stroke="none" stroke-width="1" fill="none" fill-rule="evenodd"><g id="Group-66"><rect id="Rectangle-Copy-61" fill="#FFFFFF" x="0" y="0" width="350" height="250"></rect><g id="Shopping-bag-Copy" transform="translate(101.000000, 50.000000)" fill-rule="nonzero"><path d="M125.610843,45.8448094 C124.417183,44.8861695 122.491925,44.3174544 119.835069,44.1377655 C114.504343,43.8637401 109.16108,43.9985067 103.85095,44.5420654 C96.7525678,45.2608207 91.4102006,45.7253163 87.8220568,45.9346538 C86.031119,46.0541469 81.3451304,46.2194606 73.7631955,46.4287981 C67.9721983,46.6084869 63.2709867,46.9076688 59.6595608,47.3272422 C58.7040955,47.4413446 56.2120056,47.8007223 52.1823957,48.4053752 C49.1082511,48.8545972 46.6009382,49.1537791 44.6604572,49.3038193 C40.9504401,49.4844066 37.2318265,49.3038193 33.5565536,48.7647528 C32.5512107,48.5877593 31.5326149,48.4979149 30.5119595,48.4952196 C29.5385848,48.4655709 28.5863432,48.7836201 27.8255529,49.3936637 C27.0464949,50.0854657 26.5092136,51.3971941 26.2137089,53.3468179 C23.5273023,69.2789276 20.452889,84.1032557 16.9903795,97.8198022 C16.5426451,99.6166904 15.5725836,103.419804 14.0801057,109.230043 C12.8563579,113.962148 11.9011613,117.765262 11.2146053,120.640283 C10.4684111,123.814486 9.14007256,130.058673 7.22976882,139.372843 L4.5433622,152.53505 C4.07171875,154.720964 4.16126563,156.353437 4.81200286,157.43157 C5.32743475,158.139544 6.04604851,158.672321 6.87158127,158.958925 C7.74475296,159.265295 8.6439828,159.490804 9.55798788,159.632758 C29.6257139,162.577858 49.829999,164.496935 70.0917731,165.382801 C83.3742629,166.04136 103.671856,166.580427 130.983656,167 C133.670063,167 135.684868,167 137.028071,167 C139.03034,166.911054 141.022758,166.655896 142.982939,166.236322 C146.054397,165.490614 148.149795,164.196854 149.251221,162.373013 C150.14669,160.908549 150.415331,158.851112 150.14669,156.21867 C149.775071,152.965404 149.131229,149.749873 148.221432,146.605318 C146.669585,141.034965 145.803666,137.875137 145.624572,137.126733 C144.883124,133.51948 144.329724,129.87539 143.967955,126.210637 C143.25158,119.137186 142.878169,115.46794 142.848619,115.204696 C141.887781,107.927299 139.559562,97.6104647 135.863962,84.2532958 C132.013446,70.3031539 129.580457,59.98632 128.56589,53.3018956 C128.350082,51.9218855 128.050996,50.5571488 127.670422,49.2139749 C127.327457,47.9130278 126.611082,46.7414566 125.610843,45.8448094 Z" id="Path" fill="#FFFFFF"></path><path d="M118.121132,13.2729998 C116.817515,10.8503081 115.110036,8.66917801 113.072855,6.82419202 C111.091965,4.99129755 108.725976,3.62898691 106.148227,2.83847056 C102.335661,1.73375396 98.0772382,2.00254385 93.3711716,3.64457153 C91.2714457,4.37928778 89.2503479,5.32448595 87.340044,6.46592492 C85.3126917,4.25210296 82.8278671,2.50958136 80.0580159,1.36061878 C77.2283002,0.268978932 74.1903989,-0.174734869 71.1676871,0.0619005491 C68.0940458,0.268889365 65.0758015,0.97987042 62.2326832,2.16671975 C53.0296293,5.92852427 44.9881258,13.7357913 38.1080835,25.5884313 C35.0505252,30.6865721 32.7197401,36.1885695 31.1834555,41.934278 C30.8869921,43.028784 30.7516268,44.1600124 30.7813803,45.2930321 C30.794068,45.6181595 30.8700156,45.9379129 31.0047554,46.2334832 C29.9875946,46.0274796 28.9394293,46.0274796 27.9221791,46.2334832 C27.6496615,46.347233 27.3941204,46.4977052 27.1627038,46.6813171 C27.080055,46.6042897 26.980251,46.5478626 26.871512,46.5165142 C26.762773,46.4851658 26.6482263,46.4806875 26.5372535,46.5021835 C26.0279583,46.5648803 25.6437531,47.0216708 25.375703,47.8904685 C23.2074456,54.8166672 21.0332911,63.5494277 18.8531502,74.0887501 C17.6320032,79.9347734 15.8152489,88.7418744 13.4027978,100.510949 C13.1049942,101.973574 12.1816509,105.884955 10.6329467,112.244196 L0.804442421,153.041862 C0.529423003,154.09875 0.350008126,155.177134 0.26834219,156.266266 C0.17506075,157.330319 0.376008987,158.399746 0.849117441,159.356319 C1.53711274,160.610254 3.02032338,161.685055 5.31661936,162.580723 C8.15294699,163.651046 11.0851472,164.445503 14.0729231,164.954243 C16.3305306,165.37252 19.3088354,165.77557 23.007927,166.163394 C36.8334158,167.661846 55.4179558,168.975791 78.7624404,170.104332 C90.764831,170.701743 100.176964,171 106.997053,171 C113.162205,171 119.967998,170.836093 127.413536,170.507383 C132.655703,170.262865 139.460602,169.874146 147.83002,169.343015 C148.607365,169.343015 151.082362,168.877267 155.246073,168.044296 C155.132599,167.244465 154.998574,166.393581 154.843998,165.491643 C153.414398,156.958617 152.282333,150.390685 151.448697,145.786953 C147.219759,123.395259 143.943293,106.67583 141.620192,95.6295593 C137.712915,77.118794 133.766324,60.5641671 129.781312,45.9647829 C129.51773,45.0323928 129.188922,44.1197073 128.798462,43.2329963 C128.399961,42.3964426 127.782552,41.6843867 127.011461,41.1729605 C125.874035,40.6131681 124.613306,40.3507375 123.34811,40.4116429 C123.655474,39.799454 123.823452,39.1264492 123.839535,38.4412634 C123.998578,35.1759275 123.698362,31.9043219 122.946034,28.7232684 C122.35007,25.4988645 121.754998,22.841687 121.159034,20.7518254 C120.397771,18.1422975 119.364885,15.6204554 118.076457,13.2282164 L118.121132,13.2729998 Z M115.395956,17.1243711 C116.865764,20.4866182 117.902225,24.0232519 118.478532,27.6484671 C118.770707,29.4398026 119.202268,33.0970827 119.774108,38.6203969 C119.803594,39.2363477 119.939406,39.842446 120.176183,40.4116429 C112.2419,40.54868 104.274557,40.8478331 96.2750479,41.3073106 C96.611004,40.7224396 96.8522491,40.0873216 96.9898482,39.4264979 C97.3874559,36.9838328 97.4625099,34.4994297 97.2132233,32.037239 C96.8611841,27.6133569 95.9605358,23.2507385 94.5327221,19.0500567 C93.4292492,15.6409662 91.8334575,12.4121735 89.7971701,9.46641187 C91.6636924,8.34888722 93.6794293,7.5043621 95.7836227,6.95854218 C97.8538631,6.42597814 100.000051,6.25929437 102.127475,6.46592492 C104.23703,6.67371984 106.277785,7.33024429 108.113928,8.39161057 C111.151829,10.1829461 113.57947,13.0789086 115.395956,17.0795877 L115.395956,17.1243711 Z M116.825557,45.6512992 L124.59901,45.516949 C128.619762,60.982444 132.164278,75.8057451 135.231665,89.9868525 C139.151451,108.079341 143.693113,131.874546 148.857546,161.371572 L147.070545,160.386337 C144.032643,158.595002 142.290318,157.549757 141.843568,157.2515 C140.170041,156.147142 137.444865,154.131889 133.668039,151.205743 C131.029532,149.076741 128.26951,147.102689 125.40316,145.294336 L125.22446,145.159986 C125.337935,144.73723 125.368314,144.295666 125.31381,143.861267 L116.870232,45.7408659 L116.825557,45.6512992 Z M112.40273,45.8752161 L119.461383,118.916921 C120.563069,130.047384 121.710323,138.556227 122.901359,144.443451 C122.922803,144.594819 122.952289,144.7435 122.990709,144.891285 L122.767334,145.115202 C122.635096,145.086541 122.500178,145.071314 122.365259,145.070419 C121.900639,145.076688 121.44406,145.183273 121.025009,145.383903 C118.897584,146.382572 116.914907,147.662481 115.127906,149.19049 C111.791576,151.670594 108.682194,154.443582 105.835502,157.475417 C103.588349,159.872224 101.706637,162.588784 100.251125,165.536427 L99.9830745,165.536427 L98.776849,80.4927744 C98.6633744,72.342198 98.5150534,66.2221003 98.3300988,62.1315857 C98.0977887,56.8292326 97.680524,51.6495861 97.0791982,46.5917503 C102.20789,46.2934929 107.345518,46.0543497 112.49208,45.8752161 L112.40273,45.8752161 Z M53.5210545,12.7355991 C59.0607569,7.89899331 64.9730489,5.21199008 71.2570371,4.67458943 C73.8633777,4.39227496 76.5000974,4.74561588 78.9411404,5.70460734 C80.7603072,6.52369549 82.4007739,7.69567673 83.7660425,9.15292815 C82.0764333,10.5561708 80.5074466,12.0991376 79.0751655,13.765617 C75.1419768,18.3124743 72.2720536,23.6830773 70.6762619,29.484586 C69.1573112,34.7690256 68.9339361,39.4264979 70.0061366,43.4569132 C70.0061366,43.5375233 70.0061366,43.6091767 70.0061366,43.6808301 C65.7646903,44.1223943 61.5062674,44.6150116 57.2290811,45.1586819 C50.7663928,45.9647829 46.4177264,46.4421738 44.1839755,46.5917503 C40.4679074,46.9123994 36.7311994,46.9123994 33.0151313,46.5917503 C33.0947422,46.4197821 33.1546067,46.2397529 33.1938314,46.0543497 C35.0295279,39.7935426 37.7366554,33.8233796 41.2353348,28.3202179 C45.345526,21.5429688 49.4404382,16.3780111 53.5210545,12.8251659 L53.5210545,12.7355991 Z M84.927593,13.4073499 C85.3743432,13.0042995 85.8210934,12.6191623 86.2678436,12.2429819 C91.3366713,19.4620639 93.5114512,28.8217918 92.7903964,40.3220761 C92.7448279,40.8012583 92.7752069,41.2849189 92.8797464,41.7551445 C85.8273479,42.2325354 78.7535053,42.8299458 71.6591123,43.54648 C71.7279118,43.2535966 71.7573973,42.9517566 71.7484623,42.6508122 C71.7931374,37.1132568 73.0109784,31.6483401 75.3224639,26.6184492 C77.5571083,21.5722571 80.8478703,17.0667796 84.972268,13.4073499 L84.927593,13.4073499 Z M26.8946537,55.234944 L27.654129,49.6370206 C27.9398704,49.7848058 28.2391037,49.9048253 28.5476294,49.9952877 C33.092151,51.1936912 37.7921418,51.6925781 42.4862354,51.4731395 C45.345526,51.3835727 50.0658885,50.9509652 56.6483058,50.1744213 C69.1573112,48.6696995 81.6663166,47.5205578 94.175322,46.7261005 L95.3815475,165.402077 L93.8179218,165.402077 C81.458131,165.103819 63.2896942,164.148142 39.314309,162.53594 C31.7791522,162.022722 26.0755819,161.514879 22.2037766,161.013305 C16.539699,160.338867 10.9477268,159.154794 5.49531944,157.475417 C6.65686994,151.653577 10.469168,134.665447 16.9321244,106.511922 C21.6975193,85.7566138 25.0183029,68.6789169 26.8946537,55.2797274 L26.8946537,55.234944 Z M103.735776,165.58121 C104.012761,165.196073 104.307616,164.793023 104.629276,164.372059 C107.140013,161.277527 109.936669,158.428408 112.983505,155.863215 L122.275909,148.205256 C122.61812,147.955365 122.920123,147.652629 123.169409,147.309588 C123.281991,147.421547 123.40172,147.52634 123.52681,147.623072 L131.300263,154.251013 C135.641781,157.853389 140.207568,161.173629 144.970819,164.192925 C132.437689,165.207717 118.692973,165.655551 103.735776,165.536427 L103.735776,165.58121 Z" id="Shape" fill="#374151"></path><path d="M33.2681987,101.862624 C33.1301753,106.084599 33.638566,110.303875 34.7751983,114.367515 C35.7266468,117.966045 38.6519989,123.918913 43.5513431,132.225219 C46.1309717,136.674801 49.004022,140.942658 52.1501052,145 C54.2129216,142.636666 55.7784282,140.823007 56.8483979,139.557224 C60.8304226,134.691112 64.2504251,129.378782 67.0428066,123.723693 C69.1703353,119.405457 70.839559,115.746652 72.0513639,112.748177 C73.5636822,109.007505 74.750666,105.139085 75.5972452,101.1879 C76.2115691,98.5978579 76.3915226,95.9214514 76.1291274,93.2711342 C75.887121,90.586631 74.6522678,88.0955487 72.6718931,86.2989827 C71.1799636,84.9945157 69.3166029,84.2064376 67.3530712,84.0499016 C65.3638318,83.8735736 63.3612953,84.1659542 61.5023671,84.9045524 C58.5477615,86.0443867 55.4300454,88.4733943 52.1501052,92.1915753 C51.2964343,93.1334904 50.4977245,94.1248854 49.7566353,95.1603623 C49.0385944,94.1635696 48.2044258,93.2576397 47.2745184,92.461465 C45.8340041,91.0616369 43.9467088,90.2321758 41.9555192,90.1224206 C40.6313098,90.1089261 39.3338719,90.5011659 38.2324325,91.2469612 C37.0783368,91.9684664 36.1067653,92.9544636 35.3957275,94.125785 C34.0575119,96.482822 33.3258193,99.1430352 33.2681987,101.862624 Z" id="Path" fill="#FC6078"></path><path d="M55.2396728,58.0108307 C55.0169462,58.0117285 54.7968711,58.0646939 54.5980081,58.1661361 C54.3982612,58.2675784 54.2250294,58.4139066 54.0906864,58.5943481 C53.8007883,59.1150252 53.6487686,59.7021335 53.6487686,60.3000144 C53.4012946,62.8055483 53.3279362,65.3254457 53.4278096,67.8408545 C53.4764206,68.5563366 53.6567231,69.2565575 53.9581111,69.9056084 C54.1180853,70.2242986 54.3805845,70.4783531 54.7014169,70.6255791 C55.023133,70.772805 55.3846218,70.8033274 55.7257824,70.7135555 C56.0094937,70.6031361 56.2640383,70.4289786 56.4708559,70.2036511 C56.6776734,69.9774259 56.830577,69.7072125 56.9189606,69.4118629 C57.2185809,68.500678 57.3679491,67.5446072 57.3608784,66.5840478 C57.3608784,65.9287129 57.2901716,63.8908906 57.0515359,60.5693301 C57.0736318,59.8233255 56.873885,59.0880936 56.4770427,58.4596903 C56.3188361,58.2918168 56.1252761,58.1643407 55.9105041,58.0862391 C55.695732,58.0090353 55.4659347,57.9830014 55.2396728,58.0108307 Z M76.8494551,66.44939 C77.4292513,65.7186466 77.8649823,64.880177 78.1310168,63.9806625 C78.3696525,63.0829435 78.2370771,62.4994261 77.7332908,62.1852244 C77.5308924,62.0514643 77.2957921,61.9769536 77.054505,61.9688741 C76.8132178,61.9607946 76.5736984,62.0200441 76.3633455,62.1403384 C75.9161246,62.3450184 75.5334238,62.6708904 75.2585509,63.0829435 C73.7622171,64.8981314 72.4585595,66.8695225 71.3696739,68.9630033 C71.0921495,69.3966017 70.8694229,69.8643133 70.7067971,70.3544679 C70.6387418,70.6058292 70.6263681,70.8697586 70.6723275,71.1256086 C70.718287,71.3823562 70.8208119,71.6247404 70.9719478,71.8357044 C71.1911391,72.1113041 71.5084361,72.2881548 71.8557835,72.3294498 C72.1942926,72.4219149 72.5540137,72.389597 72.8721946,72.2396779 C73.4970664,71.910215 74.0061557,71.3931289 74.3305234,70.7584415 L75.2143591,68.8283455 C75.3911262,68.4961894 75.9391044,67.724151 76.8494551,66.4942759 L76.8494551,66.44939 Z M35.8393913,67.6613107 C35.6375232,67.5383232 35.4005669,67.4898464 35.1675878,67.5221642 C34.9346087,67.5553799 34.7194831,67.6675947 34.5578295,67.8408545 C34.1159117,68.289714 34.1424268,68.9630033 34.6462131,69.8607224 C36.0808552,72.143622 37.8378321,74.2002964 39.8608436,75.9652121 C40.7446793,76.8000908 41.4782629,77.1322469 42.0704328,76.952703 C42.274864,76.8943513 42.4621488,76.7857273 42.616113,76.6376036 C42.7700771,76.4885823 42.8862131,76.3045499 42.9542685,76.0998699 C43.1318311,75.6716579 43.147475,75.192276 42.9984603,74.7532913 C42.6534108,73.948935 42.1229326,73.2406347 41.4517478,72.6885375 L36.9441859,68.379486 C36.6460681,68.0338641 36.2657536,67.7708324 35.8393913,67.6164247 L35.8393913,67.6613107 Z" id="Shape" fill="#166CFF"></path></g></g></g></svg>