<svg xmlns="http://www.w3.org/2000/svg" xmlns:xlink="http://www.w3.org/1999/xlink" width="350px" height="250px" viewBox="0 0 350 250"><title>Group 63</title><g id="Page-1" stroke="none" stroke-width="1" fill="none" fill-rule="evenodd"><g id="Group-63"><rect id="Rectangle-Copy-58" fill="#FFFFFF" x="0" y="0" width="350" height="250"></rect><g id="Domain-name-Copy" transform="translate(50.000000, 83.000000)" fill-rule="nonzero"><path d="M220.181,122.127 C222.303,105.642 216.859,89.102 220.46,72.73 C220.547,72.403 220.559,72.06 220.493,71.728 C220.428,71.396 220.288,71.084 220.083,70.814 C219.878,70.545 219.614,70.326 219.312,70.174 C219.01,70.022 218.677,69.941 218.339,69.938 L182.969,70.692 C182.389,70.703 181.836,70.939 181.427,71.35 C181.018,71.762 180.785,72.317 180.778,72.897 L180.778,121.512 C180.785,122.091 181.018,122.645 181.428,123.054 C181.837,123.463 182.39,123.697 182.969,123.704 L217.976,124.318 C220.767,124.318 220.767,119.963 217.976,119.921 L182.969,119.307 L185.175,121.512 L185.175,72.911 L182.969,75.102 L218.339,74.349 L216.217,71.557 C212.518,88.307 217.962,105.238 215.784,122.127 C215.421,124.932 219.818,124.904 220.181,122.127 Z" id="Path" fill="#374151"></path><path d="M209.964,1.4328 C201.784,7.6301 197.639,15.265 207.172,22.37 C208.428,23.319 210.717,24.338 211.471,25.622 C213.607,29.209 211.332,34.387 209.182,37.123 C207.4,39.07 205.854,41.221 204.576,43.53 C203.587,45.396 203.191,47.52 203.441,49.617 C203.69,51.714 204.573,53.686 205.972,55.268 C207.8,57.432 210.899,54.305 209.084,52.156 C203.585,45.679 219.106,35.644 217.194,27.241 C216.521,24.744 215.008,22.555 212.909,21.044 C211.387,19.787 209.098,18.894 207.814,17.387 C203.138,11.8035 208.652,7.9093 212.225,5.2014 C214.444,3.5125 212.225,-0.3817 210.006,1.4049 L209.964,1.4328 Z" id="Path" fill="#374151"></path><path d="M248.823,120.34 C166.834,118.777 84.92,118.991 3.0797,120.982 C0.2881,120.982 0.2881,125.448 3.0797,125.379 C85.059,123.276 166.973,123.062 248.823,124.737 C251.614,124.737 251.614,120.396 248.823,120.34 Z" id="Path" fill="#374151"></path><path d="M184.867,106.522 C185.175,83.966 187.171,60.6 183.904,38.212 C182.648,29.726 180.638,20.611 175.418,13.576 C169.835,6.0669 162.339,4.7548 153.476,4.1965 C128.31,2.5914 103.066,2.6474 77.908,4.364 C60.5444,5.5365 41.3104,8.6491 38.8259,29.139 C35.6993,54.515 36.816,81.035 37.9047,106.522 C37.9257,107.099 38.1652,107.646 38.5747,108.053 C38.9842,108.46 39.533,108.696 40.11,108.713 L102.013,115.916 C110.556,116.907 119.712,119.014 128.338,118.972619 C135.317,118.972619 142.854,116.362 149.652,115.064 L183.29,108.644 C186.082,108.113 184.895,103.87 182.118,104.456 L155.165,109.607 L136.126,113.25 L130.543,114.31 C130.097,114.394 127.556,114.673 128.729,114.673 C121.415,114.673 113.654,112.915 106.396,112.077 L65.5972,107.331 L40.11,104.372 L42.2456,106.522 C41.1988,82.221 40.8498,57.669 42.79,33.369 C43.446,25.566 45.0372,18.838 52.1417,14.4 C57.8784,10.8126 64.7039,9.8774 71.2641,9.2493 C84.412,8.007 97.686,7.6162 110.877,7.4766 C124.067,7.337 137.397,7.6441 150.74,8.4258 C157.538,8.8166 164.698,8.677 169.849,13.758 C174.036,17.945 176.228,23.863 177.693,29.502 C184.058,54.012 180.806,81.454 180.485,106.522 C180.429,109.313 184.826,109.313 184.867,106.522 Z" id="Path" fill="#374151"></path><path d="M218.297,89.772 C221.633,87.846 225.625,86.171 229.547,87.288 C231.597,87.944 233.347,89.308 234.482,91.137 C235.618,92.966 236.065,95.139 235.744,97.268 C234.879,104.247 226.057,110.709 219.204,108.197 C216.538,107.22 215.393,111.463 218.031,112.384 C228.249,116.139 240.657,105.894 240.266,95.355 C240.165,92.856 239.37,90.433 237.97,88.36 C236.57,86.286 234.62,84.644 232.338,83.617 C226.881,81.23 220.949,83.114 216.077,85.934 C215.621,86.25 215.3,86.727 215.18,87.27 C215.06,87.812 215.149,88.38 215.43,88.86 C215.71,89.339 216.161,89.695 216.692,89.857 C217.224,90.018 217.797,89.973 218.297,89.73 L218.297,89.772 Z" id="Path" fill="#374151"></path><path d="M169.667,91.559 L52.1976,92.397 C51.6448,92.441 51.1289,92.691 50.7527,93.099 C50.3765,93.506 50.1675,94.04 50.1675,94.595 C50.1675,95.149 50.3765,95.684 50.7527,96.091 C51.1289,96.498 51.6448,96.749 52.1976,96.793 L169.667,95.956 C170.22,95.912 170.736,95.661 171.112,95.254 C171.488,94.846 171.697,94.312 171.697,93.757 C171.697,93.203 171.488,92.669 171.112,92.261 C170.736,91.854 170.22,91.603 169.667,91.559 Z" id="Path" fill="#374151"></path><path d="M49.4758,44.06 C49.7549,60.958 49.6433,77.861 49.1408,94.769 C49.0571,97.561 53.4538,97.561 53.5375,94.769 C54.04,77.861 54.1517,60.958 53.8725,44.06 C53.8725,41.268 49.42,41.268 49.4758,44.06 Z" id="Path" fill="#374151"></path><path d="M167.253,53.663 C167.736,67.063 167.946,80.467 167.881,93.876 C167.925,94.429 168.175,94.944 168.583,95.321 C168.99,95.697 169.525,95.906 170.079,95.906 C170.634,95.906 171.168,95.697 171.575,95.321 C171.983,94.944 172.233,94.429 172.277,93.876 C172.361,80.467 172.152,67.063 171.649,53.663 C171.538,50.871 167.141,50.871 167.253,53.663 Z" id="Path" fill="#374151"></path><path d="M196.941,24.002 C197.006,31.344 197.267,38.682 197.723,46.014 L197.444,46.014 C180.959,46.517 164.461,46.782 147.963,47.047 L135.233,47.256 L66.2392,48.359 L65.974,47.898 C66.5184,40.473 66.8534,33.019 66.9511,25.566 L67.2861,25.566 C110.388,24.533 153.499,24.109 196.62,24.296" id="Path" fill="#FC6078"></path><path d="M194.736,24.003 C194.829,31.345 195.089,38.682 195.517,46.014 L198.309,43.907 C193.075,42.762 186.319,44.074 180.959,44.186 C174.539,44.339 168.132,44.451 161.711,44.563 L122.811,45.205 L82.793,45.847 C79.15,45.847 75.3956,45.707 71.7526,46.028 L68.961,46.028 C67.3977,46.936 67.1605,46.726 68.2492,45.428 C67.314,43.544 68.6958,37.709 68.7796,35.518 C68.9192,32.21 68.989,28.902 69.0448,25.594 L66.8534,27.785 C87.902,28.707 109.397,26.948 130.474,26.724 C152.49,26.501 174.506,26.436 196.522,26.529 C197.075,26.485 197.591,26.234 197.967,25.827 C198.343,25.419 198.552,24.885 198.552,24.331 C198.552,23.776 198.343,23.242 197.967,22.835 C197.591,22.427 197.075,22.176 196.522,22.132 C174.506,22.049 152.49,22.114 130.474,22.328 C109.397,22.551 87.902,24.31 66.8534,23.389 C66.273,23.403 65.7202,23.64 65.3097,24.05 C64.8991,24.461 64.6622,25.013 64.648,25.594 C64.5364,32.224 64.1456,38.812 63.8524,45.428 C63.7547,47.703 63.4058,49.336 65.6111,50.383 C67.8165,51.43 72.2272,50.383 74.4744,50.383 L85.515,50.202 L108.978,49.811 L152.052,49.127 L174.036,48.736 L185.035,48.499 C188.65,48.401 193.605,47.382 197.095,48.136 C197.422,48.226 197.765,48.24 198.098,48.175 C198.431,48.111 198.745,47.971 199.015,47.766 C199.285,47.56 199.504,47.296 199.655,46.992 C199.807,46.688 199.886,46.354 199.886,46.014 C199.467,38.691 199.207,31.354 199.105,24.003 C199.06,23.45 198.81,22.934 198.402,22.558 C197.995,22.182 197.461,21.973 196.906,21.973 C196.352,21.973 195.817,22.182 195.41,22.558 C195.003,22.934 194.752,23.45 194.708,24.003 L194.736,24.003 Z" id="Path" fill="#FC6078"></path><path d="M94.323,41.352 C102.6,34.876 115.385,27.883 119.935,18.043 C122.127,13.339 120.745,4.6849 114.352,9.7935 C107.234,15.377 103.074,29.111 106.675,37.514 C110.723,46.991 120.633,38.561 123.55,32.643 L119.531,30.954 C116.139,43.641 129.804,41.45 134.298,33.145 L130.18,31.456 C129.315,35.476 130.501,38.156 134.633,39.231 C139.797,40.627 142.198,37.835 144.794,33.731 C146.33,31.345 142.519,29.139 140.998,31.512 C139.965,33.131 133.307,37.779 134.424,32.629 C134.926,30.284 131.632,28.637 130.404,30.926 C129.65,32.322 121.457,40.417 123.676,32.126 C124.304,29.781 120.787,28.134 119.656,30.423 C118.135,33.522 113.766,40.515 110.109,34.192 C108.588,31.568 109.872,26.836 110.737,24.086 C111.724,21.109 113.135,18.288 114.924,15.712 C118.121,11.0079 116.683,14.455 115.86,16.158 C111.533,25.175 98.775,32.224 91.168,38.17 C88.949,39.915 92.075,42.999 94.281,41.283 L94.323,41.352 Z" id="Path" fill="#374151"></path><path d="M140.118,75.186 L76.066,75.019 C75.5128,75.063 74.9969,75.313 74.6207,75.721 C74.2445,76.128 74.0356,76.662 74.0356,77.217 C74.0356,77.771 74.2445,78.306 74.6207,78.713 C74.9969,79.12 75.5128,79.371 76.066,79.415 L140.118,79.583 C140.671,79.539 141.187,79.288 141.563,78.881 C141.94,78.473 142.148,77.939 142.148,77.384 C142.148,76.83 141.94,76.296 141.563,75.888 C141.187,75.481 140.671,75.23 140.118,75.186 Z" id="Path" fill="#166CFF"></path><path d="M95.467,62.47 C85.417,62.791 75.3817,63.029 65.3459,62.596 C62.5543,62.47 62.5543,66.867 65.3459,66.993 C75.3817,67.425 85.417,67.188 95.467,66.867 C98.259,66.783 98.259,62.387 95.467,62.47 Z" id="Path" fill="#166CFF"></path><path d="M195.95,121.499 C197.974,121.499 200.668,118.107 201.533,116.53 C205.986,108.155 193.493,106.285 188.175,106.341 C138.792,106.885 89.284,102.251 40.0961,106.536 C34.7362,106.997 28.6506,104.889 26.1382,109.635 C25.5996,110.81 25.3289,112.09 25.3450547,113.383 C25.3626,114.675 25.6666,115.948 26.2356,117.109 C26.8047,118.27 27.6246,119.29 28.6361,120.095 C29.6476,120.9 30.8254,121.47 32.0842,121.764 L195.95,121.499 Z" id="Path" fill="#FFFFFF"></path><path d="M196.536,123.62 C201.114,122.308 205.721,116.557 204.395,111.574 C203.069,106.591 197.15,105.098 192.782,104.484 C182.369,103.088 171.217,104.191 160.678,103.995 C147.404,103.758 134.158,103.339 120.87,103.004 C94.797,102.348 68.7935,102.251 42.7062,104.107 C36.7601,104.526 27.3525,102.278 24.0026,108.783 C21.4204,113.71 24.0026,120.312 28.6785,122.866 C32.2936,124.834 37.3185,123.955 41.2406,123.955 L68.6819,123.955 L145.771,123.829 L195.838,123.746 C196.391,123.702 196.907,123.451 197.283,123.043 C197.659,122.636 197.868,122.102 197.868,121.547 C197.868,120.993 197.659,120.459 197.283,120.051 C196.907,119.644 196.391,119.393 195.838,119.349 L101.232,119.503 L44.5626,119.586 C40.8498,119.586 36.1879,120.368 32.489,119.586 C30.9257,119.265 32.9636,121.429 29.4462,118.093 C26.7384,115.524 26.3057,110.835 30.1162,108.964 C31.6934,108.183 34.5967,108.755 36.3135,108.783 C46.6144,108.894 57.0131,107.499 67.314,107.192 C92.006,106.452 116.697,107.303 141.375,107.959 C154.188,108.308 166.987,108.601 179.801,108.601 C184.281,108.601 188.957,108.141 193.396,109.048 C194.945,109.23 196.447,109.704 197.82,110.444 C201.408,113.054 199.216,118.232 195.252,119.377 C192.642,120.159 193.801,124.416 196.536,123.62 Z" id="Path" fill="#374151"></path></g></g></g></svg>