<svg width="22" height="19" viewBox="0 0 22 19" fill="none" xmlns="http://www.w3.org/2000/svg">
<path d="M21.6501 2.79771C21.1613 3.00461 20.6539 3.16783 20.1332 3.286C20.7069 2.76561 21.1383 2.1147 21.3816 1.38817C21.4511 1.18076 21.2151 1.0014 21.0189 1.11245C20.2946 1.52257 19.5143 1.83023 18.6998 2.02699C18.6526 2.03841 18.6038 2.0442 18.5549 2.0442C18.4065 2.0442 18.2623 1.99161 18.1489 1.89618C17.2823 1.16714 16.1677 0.765625 15.0106 0.765625C14.5099 0.765625 14.0043 0.840121 13.508 0.987066C11.9701 1.44239 10.7834 2.65332 10.4111 4.14734C10.2714 4.70773 10.2336 5.26863 10.2986 5.81442C10.3061 5.87714 10.275 5.92092 10.2559 5.94145C10.2223 5.97744 10.1746 5.99808 10.1251 5.99808C10.1195 5.99808 10.1138 5.99782 10.1082 5.99731C6.74177 5.69876 3.70606 4.15062 1.56026 1.63813C1.45084 1.50997 1.24101 1.52569 1.15379 1.66849C0.733592 2.35662 0.511529 3.14367 0.511529 3.94454C0.511529 5.17191 1.02812 6.32857 1.92543 7.17179C1.54809 7.08639 1.18287 6.95188 0.843604 6.77202C0.679471 6.68498 0.477523 6.79685 0.475216 6.97605C0.451723 8.79939 1.57008 10.4218 3.24542 11.1524C3.21168 11.1532 3.17794 11.1535 3.14415 11.1535C2.87859 11.1535 2.6097 11.1291 2.34505 11.0808C2.16021 11.0471 2.00493 11.2145 2.06232 11.3855C2.6061 13.006 4.06785 14.2005 5.8171 14.4718C4.36533 15.402 2.67471 15.8927 0.915103 15.8927L0.366545 15.8924C0.197531 15.8924 0.054585 15.9976 0.0115134 16.1538C-0.0309144 16.3077 0.0472365 16.4701 0.191363 16.5501C2.17415 17.6516 4.43581 18.2337 6.73282 18.2337C8.74345 18.2337 10.6242 17.8529 12.3229 17.1018C13.8802 16.4132 15.2564 15.4288 16.4131 14.1761C17.4907 13.0092 18.3334 11.662 18.9176 10.1722C19.4745 8.75208 19.7689 7.23676 19.7689 5.79005V5.72114C19.7688 5.48884 19.8789 5.27027 20.0709 5.12148C20.7996 4.55674 21.4342 3.89196 21.9569 3.14561C22.0949 2.94854 21.8772 2.70155 21.6501 2.79771Z" fill="#DDDDDD"/>
</svg>
